Coordinates
version=1
nRows=11
nColumns=36
inDegrees=yes

Units are S.I. units (second, meters, Newtons, ...)
If the header above contains a line with 'inDegrees', this indicates whether rotational values are in degrees (yes) or radians (no).

endheader
time	pelvis_tilt	pelvis_list	pelvis_rotation	pelvis_tx	pelvis_ty	pelvis_tz	hip_flexion_r	hip_adduction_r	hip_rotation_r	knee_angle_r	knee_angle_r_beta	ankle_angle_r	subtalar_angle_r	mtp_angle_r	hip_flexion_l	hip_adduction_l	hip_rotation_l	knee_angle_l	knee_angle_l_beta	ankle_angle_l	subtalar_angle_l	mtp_angle_l	lumbar_extension	lumbar_bending	lumbar_rotation	arm_flex_r	arm_add_r	arm_rot_r	elbow_flex_r	pro_sup_r	arm_flex_l	arm_add_l	arm_rot_l	elbow_flex_l	pro_sup_l
      0.00000000	      2.43844682	      3.47464326	     14.41022897	      0.80261282	      0.98754648	      0.04745920	     -4.16599102	    -11.60161974	     -9.53330437	      7.93853564	      0.13855358	      1.46988759	    -16.64433143	     -6.01025562	     -4.87727837	     -5.39411373	     -0.83836025	      5.28366993	      0.09221744	      0.60423290	     -9.99164383	     -6.01025562	    -12.34420944	     -2.73430182	     -1.43075546	     37.67624025	      7.90529609	     60.23340102	    120.67028806	    110.10757794	     30.42621127	      7.98386907	     65.18756568	    125.19333302	    110.02229930
      0.01666670	     -0.78325570	      1.63151944	     14.16681297	      0.80581741	      0.97872854	      0.04681303	     -0.23548211	    -10.91534262	    -10.51335183	      8.27397935	      0.14440818	      3.96763326	    -13.62389824	     -6.26469625	     -0.45351146	     -6.37696807	     -0.87390221	      6.09644683	      0.10640307	      2.82360854	     -9.05940022	     -6.26469625	     -7.78663431	     -2.08185526	     -0.63813679	     37.54038871	      6.83788524	     61.83984848	    124.33224815	    109.16661372	     29.89099038	      8.45549944	     67.87764507	    126.65535086	    107.28711296
      0.03333330	     -1.33769096	      1.69145410	     14.06869442	      0.80667755	      0.98167388	      0.04711683	      0.13156233	    -11.29141722	    -10.59211958	      7.65408778	      0.13358903	      4.12848789	    -13.53854311	     -6.27770589	      0.06377563	     -6.22703759	     -0.94057320	      5.69355371	      0.09937126	      2.96220280	     -8.71603427	     -6.27770589	     -7.38422280	     -2.61808286	     -0.12609809	     36.54872379	      6.58409986	     63.35275038	    124.98022102	    109.13064243	     29.58526623	      8.20944387	     68.50334848	    127.58247575	    107.04108530
      0.05000000	     -1.62205598	      1.96940867	     14.07749026	      0.81018983	      0.97924707	      0.04390971	      0.05739996	    -11.78728595	    -10.91756094	      7.35770667	      0.12841621	      4.71625992	    -12.67476806	     -6.61320236	     -0.37283644	     -5.93987088	     -1.25775482	      4.77981267	      0.08342347	      3.14283250	     -8.32035243	     -6.61320236	     -6.90465910	     -3.22471187	      0.34772119	     35.67417879	      6.46752516	     64.67767478	    125.01574553	    106.32799299	     29.87808308	      8.43445756	     69.78772442	    127.22442111	    101.93415202
      0.06666670	     -1.82936988	      2.05525910	     14.22988516	      0.80723780	      0.98118972	      0.04711046	      0.13324295	    -11.86667042	    -11.03991955	      7.20236536	      0.12570499	      5.00855489	    -12.69031960	     -6.61664344	     -0.50330367	     -5.91806245	     -0.80986580	      4.12247298	      0.07195073	      3.32568708	     -8.22695982	     -6.61664344	     -6.66387520	     -3.38909838	      0.50959740	     34.98074621	      6.60684293	     65.25853804	    124.71476380	    106.30193705	     30.11093997	      8.45419635	     69.94230833	    127.14069551	    101.81082808
      0.08333330	     -2.08216361	      2.19186787	     14.34600062	      0.81056936	      0.97857275	      0.04347287	      0.27645209	    -12.13436723	    -11.58736202	      7.25494257	      0.12662263	      5.42374540	    -11.78435724	     -6.77172949	     -0.60804016	     -5.69093159	     -0.62183289	      3.59816117	      0.06279976	      3.04507428	     -8.42625789	     -6.77172949	     -6.07332213	     -3.50300754	      0.62950135	     34.07561754	      6.43276996	     65.67365207	    124.29638965	    103.00436270	     30.19701320	      8.67496902	     70.94835140	    126.72005370	     94.49629086
      0.10000000	     -2.40178940	      2.23663619	     14.41997941	      0.81064337	      0.97871988	      0.04326867	      0.63339698	    -12.30350580	    -11.70869095	      7.42609395	      0.12960979	      5.52631446	    -11.84982938	     -6.83505558	     -0.41543122	     -5.54909516	     -0.61713036	      3.44531021	      0.06013201	      3.14193628	     -8.27056434	     -6.83505558	     -5.47070534	     -3.50123683	      0.60217596	     33.48289812	      6.28861314	     65.77446362	    124.09096940	    101.09140872	     29.88562725	      8.74762253	     71.01436121	    126.71218298	     92.63356364
      0.11666670	     -2.46679342	      2.30999559	     14.61712550	      0.81064309	      0.97800176	      0.04315747	      0.54173740	    -12.39826680	    -11.77870405	      7.45890266	      0.13018241	      5.83159959	    -11.60021024	     -6.91429525	     -0.46937663	     -5.45622105	     -0.48089543	      3.23066812	      0.05638580	      2.97381700	     -8.40056650	     -6.91429525	     -5.23140549	     -3.54357544	      0.46969094	     33.02707859	      6.26807605	     65.56045744	    123.87699044	     99.19111699	     29.79425004	      8.92760752	     71.07238137	    126.57654674	     90.77763801
      0.13333330	     -2.67139439	      2.36708870	     14.75077851	      0.81087006	      0.97588385	      0.04278539	      0.77148443	    -12.54582681	    -11.58208964	      7.74436798	      0.13516472	      6.33903883	    -11.59009552	     -7.01307223	     -0.18066577	     -5.35024310	     -0.22310595	      3.48459257	      0.06081761	      3.07076947	     -8.48174815	     -7.01307223	     -4.85626618	     -3.60543439	      0.48233427	     32.96112069	      6.34782868	     65.07732507	    123.65632524	     96.65147031	     29.65876752	      9.10254016	     71.07506585	    126.66218567	     88.20803061
      0.15000000	     -2.65462038	      2.42293501	     14.84598846	      0.81394239	      0.97803252	      0.03988376	      0.60639846	    -12.63528164	    -11.54052090	      7.80632444	      0.13624606	      6.33694974	    -11.57934207	     -7.01343010	     -0.27339972	     -5.25644783	     -0.21434810	      3.53041493	      0.06161736	      3.01363842	     -8.47197779	     -7.01343010	     -4.67188969	     -3.55021369	      0.47043185	     32.94702266	      6.37218972	     65.06149628	    123.64769793	     96.65981485	     29.58209218	      9.15512316	     71.11331771	    126.64960371	     88.20578738
      0.16666670	     -2.70751250	      2.54660614	     14.95161015	      0.81407765	      0.97622019	      0.03951372	      0.54680043	    -12.85055166	    -11.60107026	      7.87996094	      0.13753126	      6.45573716	    -11.58709787	     -7.04990225	     -0.30451653	     -5.03106531	      0.06906118	      3.57160047	      0.06233619	      2.78482083	     -8.81007505	     -7.04990225	     -4.38303857	     -3.65083395	      0.34054792	     32.77982385	      6.64348952	     64.70201856	    123.23463997	     96.08492643	     29.01533689	      9.27777072	     71.02665491	    126.48031489	     87.21595572
